<?xml version="1.0" standalone="no"?>
<!DOCTYPE svg PUBLIC "-//W3C//DTD SVG 20010904//EN"
 "http://www.w3.org/TR/2001/REC-SVG-20010904/DTD/svg10.dtd">
<svg version="1.0" xmlns="http://www.w3.org/2000/svg"
 width="500.000000pt" height="500.000000pt" viewBox="0 0 500.000000 500.000000"
 preserveAspectRatio="xMidYMid meet">

<g transform="translate(0.000000,500.000000) scale(0.100000,-0.100000)"
fill="#000000" stroke="none">
<path d="M930 2680 l0 -690 1415 0 1415 0 0 690 0 690 -1415 0 -1415 0 0 -690z
m2770 0 l0 -630 -1355 0 -1355 0 0 630 0 630 1355 0 1355 0 0 -630z"/>
<path d="M1340 2675 l0 -235 50 0 50 0 0 95 0 95 85 0 85 0 0 45 0 44 -82 3
-83 3 -3 48 -3 47 85 0 86 0 0 45 0 45 -135 0 -135 0 0 -235z"/>
<path d="M1690 2675 l0 -235 55 0 54 0 3 140 3 140 76 -137 75 -138 52 -3 52
-3 0 235 0 236 -50 0 -49 0 -3 -142 -3 -143 -78 143 -78 142 -54 0 -55 0 0
-235z"/>
<path d="M2340 2675 l0 -235 88 0 c100 0 141 9 191 45 119 83 131 260 25 362
-53 51 -92 63 -211 63 l-93 0 0 -235z m196 125 c73 -36 97 -132 51 -201 -28
-41 -60 -59 -109 -59 l-38 0 0 133 c0 74 3 137 7 140 12 13 46 7 89 -13z"/>
<path d="M2780 2675 l0 -235 140 0 140 0 0 45 0 45 -85 0 -85 0 0 50 0 50 80
0 80 0 0 45 0 45 -80 0 -80 0 0 50 0 50 85 0 85 0 0 45 0 45 -140 0 -140 0 0
-235z"/>
<path d="M3114 2893 c4 -10 46 -116 94 -235 l87 -218 45 0 46 0 87 218 c47
119 89 225 93 235 5 15 -1 17 -49 17 l-55 0 -58 -160 c-33 -88 -61 -160 -64
-160 -4 0 -12 17 -19 38 -8 20 -34 92 -58 160 l-45 122 -55 0 c-48 0 -54 -2
-49 -17z"/>
</g>
</svg>
